<?xml version="1.0" standalone="no"?>
<!DOCTYPE svg PUBLIC "-//W3C//DTD SVG 20010904//EN"
 "http://www.w3.org/TR/2001/REC-SVG-20010904/DTD/svg10.dtd">
<svg version="1.0" xmlns="http://www.w3.org/2000/svg"
 width="500.000000pt" height="500.000000pt" viewBox="0 0 500.000000 500.000000"
 preserveAspectRatio="xMidYMid meet">

<g transform="translate(0.000000,500.000000) scale(0.100000,-0.100000)"
fill="#000000" stroke="none">
<path d="M117 3153 c-4 -3 -7 -289 -7 -635 l0 -628 1125 0 c993 0 1125 2 1125
15 0 13 -129 15 -1105 15 l-1105 0 0 605 0 605 1105 0 c976 0 1105 2 1105 15
0 13 -131 15 -1118 15 -615 0 -1122 -3 -1125 -7z"/>
<path d="M290 2803 c-1 -5 43 -133 97 -285 95 -271 98 -278 124 -278 27 0 29
6 99 218 40 119 76 221 80 225 4 5 16 -15 25 -45 10 -29 45 -131 78 -225 57
-165 60 -173 86 -173 25 0 29 10 124 278 53 152 97 280 97 285 0 4 -13 7 -29
7 -28 0 -29 -2 -106 -227 -43 -126 -81 -231 -84 -235 -4 -4 -42 98 -84 227
-73 220 -80 235 -102 235 -23 0 -29 -15 -101 -235 -42 -129 -80 -233 -84 -230
-4 3 -10 16 -14 29 -3 13 -38 116 -77 230 -71 204 -72 206 -100 206 -16 0 -29
-3 -29 -7z"/>
<path d="M1320 2525 l0 -285 205 0 205 0 0 30 0 30 -175 0 -175 0 0 100 0 100
155 0 155 0 0 25 0 25 -155 0 -155 0 0 100 0 100 170 0 170 0 0 30 0 30 -200
0 -200 0 0 -285z"/>
<path d="M1950 2525 l0 -287 163 4 c146 3 167 5 210 27 56 27 80 66 80 129 0
51 -25 90 -75 115 l-35 17 38 39 c36 35 39 43 39 93 0 64 -16 90 -73 120 -36
18 -64 22 -194 26 l-153 5 0 -288z m334 196 c35 -33 36 -98 4 -129 -37 -33
-73 -42 -179 -42 l-99 0 0 101 0 101 124 -4 c116 -3 126 -5 150 -27z m-3 -238
c76 -30 86 -115 19 -160 -30 -21 -45 -23 -161 -23 l-129 0 0 100 0 100 115 0
c83 0 126 -5 156 -17z"/>
<path d="M2622 2603 c3 -200 4 -210 28 -252 53 -94 150 -135 264 -111 66 14
116 51 149 114 20 38 22 58 25 249 l3 207 -30 0 -31 0 0 -193 c0 -180 -1 -196
-22 -237 -35 -68 -66 -85 -151 -85 -59 0 -78 4 -105 23 -62 45 -67 65 -70 290
l-3 202 -30 0 -30 0 3 -207z"/>
<path d="M3340 2525 l0 -285 30 0 30 0 0 285 0 285 -30 0 -30 0 0 -285z"/>
<path d="M3660 2525 l0 -285 190 0 190 0 0 30 0 30 -160 0 -160 0 0 255 0 255
-30 0 -30 0 0 -285z"/>
<path d="M4250 2524 l0 -286 138 4 c121 3 143 7 192 29 110 51 164 136 164
254 0 41 -7 85 -16 106 -22 50 -83 116 -129 140 -47 24 -147 39 -261 39 l-88
0 0 -286z m320 196 c24 -14 58 -44 74 -68 26 -37 31 -55 34 -116 4 -82 -13
-129 -65 -178 -47 -45 -92 -58 -203 -58 l-100 0 0 226 0 226 108 -4 c91 -3
114 -7 152 -28z"/>
</g>
</svg>
