<?xml version="1.0" standalone="no"?>
<!DOCTYPE svg PUBLIC "-//W3C//DTD SVG 20010904//EN"
 "http://www.w3.org/TR/2001/REC-SVG-20010904/DTD/svg10.dtd">
<svg version="1.0" xmlns="http://www.w3.org/2000/svg"
 width="512.000000pt" height="512.000000pt" viewBox="0 0 512.000000 512.000000"
 preserveAspectRatio="xMidYMid meet">

<g transform="translate(0.000000,512.000000) scale(0.100000,-0.100000)"
fill="#000000" stroke="none">
<path d="M2472 4004 c-18 -9 -45 -33 -60 -52 l-27 -35 -2 -1346 -3 -1346 23
-40 c12 -22 40 -50 62 -63 38 -22 47 -23 175 -18 620 24 1175 476 1334 1087
34 130 46 229 46 369 0 140 -12 239 -46 369 -159 612 -714 1064 -1334 1087
-115 4 -140 2 -168 -12z"/>
</g>
</svg>
